<svg version="1" xmlns="http://www.w3.org/2000/svg" width="765.333" height="765.333" viewBox="0 0 574.000000 574.000000"><path d="M449.1 10.7c8.2 37.4 20.6 82.6 37.4 136.3 5.9 19 13.8 44.4 17.5 56.5 7.5 24.3 23.4 80.7 27 95.5l2.2 9.5-5.7 16c-3.1 8.8-6 16.4-6.4 16.8-1.1 1.1-2.1-.4-8.6-12.3-12.3-22.6-15.6-40.7-12-66 4-27.7-.9-47.2-19.1-76.5-8-12.9-27.7-38.6-43.3-56.4-1.4-1.7-1.6-2 10.6 18.2 16.1 26.7 24.9 46.9 29.3 67.7 2 8.9 2.2 12.3 1.7 23.9-.6 16-2.3 22.2-12 46.6-3.6 8.8-7 18.7-7.7 22-.7 3.3-1.8 6.5-2.4 7.2-.8.9-6.3-2.2-22.6-12.6-88.4-56.5-140.9-87.6-220-130.3-44.3-23.9-100-52.8-93.6-48.6 1 .7 18.5 12.4 39 25.9 71.9 47.5 120.8 82.7 162.6 116.8 20 16.3 31.2 26.1 67 58.6 50.8 46.2 65.9 59.5 94.2 83.3 8.7 7.3 16 13.7 16.3 14.2.4.6-1.4 1.9-4 3-8.8 3.8-40.7 22.2-57.7 33.4-17.9 11.7-23.8 15.3-44.7 27.6-9.9 5.8-16.3 8.6-31 13.8l-18.6 6.4-22.5-.5c-21.6-.5-23.2-.6-41-4.5-22.5-4.9-49.7-14-74.5-25-9.9-4.4-38.7-18.3-64-31-33.9-17-50.6-24.8-63.5-29.6-9.6-3.6-19.3-6.7-21.5-7.1l-4-.5 5 1.9c17.2 6.4 46 22.8 97.4 55.4 17.3 10.9 38.7 24.2 47.5 29.3 25.1 14.7 57.6 30.7 77.4 38.1 22.9 8.5 23.1 8.5 44.5 13.2 17.2 3.8 19.3 4 37.7 4.3 18.3.3 20.2.1 31-2.4 14.8-3.5 18.5-3.8 18.5-1.7 0 1-6.2 6.6-14 12.9-7.7 6.1-14.2 11.4-14.4 11.6-.2.2 41.4.4 92.6.4h93.1l1.1-3.1c.8-2.3 1.1-81.7 1.1-280.4V11.3l-8.7-1.7c-4.9-.9-10-1.9-11.4-2.2l-2.5-.6-1.3 37.4-1.3 37.3 3.1 17.6c3.1 17.3 3.1 18.1 2.9 46-.3 23.8-.5 28.4-1.7 28.4-.8 0-4.3-5.3-7.9-12-3.5-6.6-13.5-24.8-22.2-40.5-27.6-50-39.5-74.2-51.2-103.8L463.9 2H447.2l1.9 8.7z"/></svg>