<?xml version="1.0" standalone="no"?>
<!DOCTYPE svg PUBLIC "-//W3C//DTD SVG 20010904//EN"
 "http://www.w3.org/TR/2001/REC-SVG-20010904/DTD/svg10.dtd">
<svg version="1.0" xmlns="http://www.w3.org/2000/svg"
 width="574.000000pt" height="574.000000pt" viewBox="0 0 574.000000 574.000000"
 preserveAspectRatio="xMidYMid meet">
<metadata>
Created by potrace 1.11, written by Peter Selinger 2001-2013
</metadata>
<g transform="translate(0.000000,574.000000) scale(0.100000,-0.100000)"
fill="#000000" stroke="none">
<path d="M4491 5633 c82 -374 206 -826 374 -1363 59 -190 138 -444 175 -565
75 -243 234 -807 270 -955 l22 -95 -57 -160 c-31 -88 -60 -164 -64 -168 -11
-11 -21 4 -86 123 -123 226 -156 407 -120 660 40 277 -9 472 -191 765 -80 129
-277 386 -433 564 -14 17 -16 20 106 -182 161 -267 249 -469 293 -677 20 -89
22 -123 17 -239 -6 -160 -23 -222 -120 -466 -36 -88 -70 -187 -77 -220 -7 -33
-18 -65 -24 -72 -8 -9 -63 22 -226 126 -884 565 -1409 876 -2200 1303 -443
239 -1000 528 -936 486 10 -7 185 -124 390 -259 719 -475 1208 -827 1626
-1168 200 -163 312 -261 670 -586 508 -462 659 -595 942 -833 87 -73 160 -137
163 -142 4 -6 -14 -19 -40 -30 -88 -38 -407 -222 -577 -334 -179 -117 -238
-153 -447 -276 -99 -58 -163 -86 -310 -138 l-186 -64 -225 5 c-216 5 -232 6
-410 45 -225 49 -497 140 -745 250 -99 44 -387 183 -640 310 -339 170 -506
248 -635 296 -96 36 -193 67 -215 71 l-40 5 50 -19 c172 -64 460 -228 974
-554 173 -109 387 -242 475 -293 251 -147 576 -307 774 -381 229 -85 231 -85
445 -132 172 -38 193 -40 377 -43 183 -3 202 -1 310 24 148 35 185 38 185 17
0 -10 -62 -66 -140 -129 -77 -61 -142 -114 -144 -116 -2 -2 414 -4 926 -4
l931 0 11 31 c8 23 11 817 11 2804 l0 2772 -87 17 c-49 9 -100 19 -114 22
l-25 6 -13 -374 -13 -373 31 -176 c31 -173 31 -181 29 -460 -3 -238 -5 -284
-17 -284 -8 0 -43 53 -79 120 -35 66 -135 248 -222 405 -276 500 -395 742
-512 1038 l-59 152 -84 0 -83 0 19 -87z"/>
</g>
</svg>
